<svg xmlns="http://www.w3.org/2000/svg" width="32" height="32" viewBox="0 0 32 32">
  <!-- Chest Closed - Coffre fermé style cartoon -->

  <!-- Shadow -->
  <ellipse cx="16" cy="30" rx="12" ry="2" fill="#00000033"/>

  <!-- Chest body -->
  <rect x="4" y="14" width="24" height="14" rx="2" fill="#8B4513"/>

  <!-- Chest body highlight -->
  <rect x="6" y="16" width="20" height="4" fill="#A0522D" opacity="0.6"/>

  <!-- Chest body dark -->
  <rect x="4" y="24" width="24" height="4" rx="1" fill="#654321"/>

  <!-- Body outline -->
  <rect x="4" y="14" width="24" height="14" rx="2" fill="none" stroke="#3D2314" stroke-width="1.5"/>

  <!-- Chest lid -->
  <path d="M 3 14 Q 3 8 16 6 Q 29 8 29 14 Z" fill="#A0522D"/>

  <!-- Lid highlight -->
  <path d="M 6 13 Q 6 10 16 8 Q 26 10 26 13 Z" fill="#CD853F" opacity="0.5"/>

  <!-- Lid outline -->
  <path d="M 3 14 Q 3 8 16 6 Q 29 8 29 14" fill="none" stroke="#3D2314" stroke-width="1.5"/>

  <!-- Metal bands -->
  <rect x="3" y="13" width="26" height="2" fill="#DAA520"/>
  <rect x="3" y="13" width="26" height="2" fill="none" stroke="#8B6914" stroke-width="0.5"/>

  <!-- Lock -->
  <rect x="13" y="16" width="6" height="8" rx="1" fill="#DAA520"/>
  <rect x="13" y="16" width="6" height="8" rx="1" fill="none" stroke="#8B6914" stroke-width="0.8"/>
  <circle cx="16" cy="20" r="1.5" fill="#8B6914"/>

  <!-- Corner decorations -->
  <circle cx="6" cy="16" r="1.5" fill="#DAA520"/>
  <circle cx="26" cy="16" r="1.5" fill="#DAA520"/>
  <circle cx="6" cy="26" r="1.5" fill="#DAA520"/>
  <circle cx="26" cy="26" r="1.5" fill="#DAA520"/>
</svg>
