<svg xmlns="http://www.w3.org/2000/svg" width="24" height="24" viewBox="0 0 24 24">
  <!-- Enemy Crawler - Cute Kirby-style - Angry corrupted pebble -->

  <!-- Angry aura -->
  <ellipse cx="12" cy="13" rx="11" ry="10" fill="#FF6666" opacity="0.1"/>

  <!-- Main body - dark reddish -->
  <ellipse cx="12" cy="14" rx="10" ry="8" fill="#5A3A3A"/>

  <!-- Body highlight -->
  <ellipse cx="8" cy="10" rx="4" ry="3" fill="#7A5050" opacity="0.6"/>
  <ellipse cx="6" cy="8" rx="2" ry="1.5" fill="#9A7070" opacity="0.4"/>

  <!-- Corruption marks (cute angry veins) -->
  <path d="M6 14 Q8 12 10 14" stroke="#CC4444" stroke-width="0.8" fill="none" opacity="0.6"/>
  <path d="M14 16 Q16 14 18 16" stroke="#CC4444" stroke-width="0.6" fill="none" opacity="0.5"/>

  <!-- Left eye (angry!) -->
  <ellipse cx="8" cy="12" rx="3" ry="3.5" fill="#FFFFFF"/>
  <ellipse cx="8" cy="12" rx="3" ry="3.5" fill="none" stroke="#3A2020" stroke-width="0.7"/>
  <ellipse cx="8.5" cy="12" rx="1.8" ry="2.5" fill="#CC2222"/>
  <circle cx="7.5" cy="10.5" r="1" fill="#FFFFFF"/>
  <!-- Angry eyebrow -->
  <path d="M5 9 L10 10.5" stroke="#3A2020" stroke-width="1.2" stroke-linecap="round"/>

  <!-- Right eye (front, bigger, angry!) -->
  <ellipse cx="16" cy="11" rx="4" ry="5" fill="#FFFFFF"/>
  <ellipse cx="16" cy="11" rx="4" ry="5" fill="none" stroke="#3A2020" stroke-width="0.7"/>
  <ellipse cx="16.5" cy="11" rx="2.2" ry="3.2" fill="#CC2222"/>
  <circle cx="15" cy="9" r="1.5" fill="#FFFFFF"/>
  <circle cx="18" cy="12" r="0.5" fill="#FFFFFF" opacity="0.7"/>
  <!-- Angry eyebrow -->
  <path d="M13 7 L20 9" stroke="#3A2020" stroke-width="1.2" stroke-linecap="round"/>

  <!-- Angry frown -->
  <path d="M10 17 Q12 15 15 17" stroke="#3A2020" stroke-width="1" fill="none" stroke-linecap="round"/>

  <!-- Body outline -->
  <ellipse cx="12" cy="14" rx="10" ry="8" fill="none" stroke="#3A2020" stroke-width="1.2"/>

  <!-- Small spikes (cute angry horns) -->
  <ellipse cx="4" cy="10" rx="1.5" ry="2" fill="#4A2A2A" transform="rotate(-20 4 10)"/>
  <ellipse cx="20" cy="10" rx="1.5" ry="2" fill="#4A2A2A" transform="rotate(20 20 10)"/>

  <!-- Cute angry feet -->
  <ellipse cx="7" cy="21" rx="2.5" ry="1.2" fill="#4A2A2A"/>
  <ellipse cx="12" cy="21.5" rx="2" ry="1" fill="#4A2A2A"/>
  <ellipse cx="17" cy="21" rx="2.5" ry="1.2" fill="#4A2A2A"/>
</svg>
