<svg xmlns="http://www.w3.org/2000/svg" width="24" height="24" viewBox="0 0 24 24">
  <!-- Emote Hi - Bulle de salutation -->

  <!-- Speech bubble -->
  <path d="M 4 4 Q 4 2 6 2 L 18 2 Q 20 2 20 4 L 20 14 Q 20 16 18 16 L 14 16 L 12 20 L 10 16 L 6 16 Q 4 16 4 14 Z" fill="white"/>
  <path d="M 4 4 Q 4 2 6 2 L 18 2 Q 20 2 20 4 L 20 14 Q 20 16 18 16 L 14 16 L 12 20 L 10 16 L 6 16 Q 4 16 4 14 Z" fill="none" stroke="#4A5568" stroke-width="1.5"/>

  <!-- "hi" text -->
  <text x="12" y="12" font-family="Arial, sans-serif" font-size="10" font-weight="bold" fill="#4A5568" text-anchor="middle">hi!</text>
</svg>
