<svg xmlns="http://www.w3.org/2000/svg" width="32" height="24" viewBox="0 0 32 24">
  <!-- Bush - Buisson décoratif -->

  <!-- Shadow -->
  <ellipse cx="16" cy="22" rx="12" ry="3" fill="#00000033"/>

  <!-- Bush layers -->
  <ellipse cx="8" cy="16" rx="8" ry="6" fill="#228B22"/>
  <ellipse cx="24" cy="16" rx="8" ry="6" fill="#228B22"/>
  <ellipse cx="16" cy="14" rx="10" ry="8" fill="#2E8B2E"/>
  <ellipse cx="12" cy="10" rx="6" ry="5" fill="#32CD32"/>
  <ellipse cx="20" cy="10" rx="6" ry="5" fill="#32CD32"/>
  <ellipse cx="16" cy="8" rx="5" ry="4" fill="#3CB371"/>

  <!-- Outlines -->
  <ellipse cx="8" cy="16" rx="8" ry="6" fill="none" stroke="#006400" stroke-width="1"/>
  <ellipse cx="24" cy="16" rx="8" ry="6" fill="none" stroke="#006400" stroke-width="1"/>
  <ellipse cx="16" cy="14" rx="10" ry="8" fill="none" stroke="#006400" stroke-width="1"/>

  <!-- Highlights -->
  <ellipse cx="10" cy="8" rx="2" ry="1.5" fill="#90EE90" opacity="0.6"/>
  <ellipse cx="18" cy="6" rx="2" ry="1.5" fill="#90EE90" opacity="0.6"/>
  <ellipse cx="6" cy="14" rx="2" ry="1.5" fill="#90EE90" opacity="0.5"/>

  <!-- Berries (optional decoration) -->
  <circle cx="22" cy="12" r="1.5" fill="#FF6347"/>
  <circle cx="10" cy="14" r="1.5" fill="#FF6347"/>
  <circle cx="16" cy="10" r="1.5" fill="#FF6347"/>
</svg>
