<svg xmlns="http://www.w3.org/2000/svg" width="48" height="64" viewBox="0 0 48 64">
  <!-- Tree - Arbre style cartoon -->

  <!-- Shadow -->
  <ellipse cx="24" cy="62" rx="16" ry="3" fill="#00000033"/>

  <!-- Trunk -->
  <rect x="20" y="40" width="8" height="22" fill="#8B4513"/>
  <rect x="20" y="40" width="8" height="22" fill="none" stroke="#5D2E0C" stroke-width="1"/>

  <!-- Trunk detail -->
  <path d="M 22 45 Q 23 50 22 55" stroke="#6B3A0C" stroke-width="1" fill="none"/>
  <path d="M 26 42 Q 25 48 26 54" stroke="#6B3A0C" stroke-width="1" fill="none"/>

  <!-- Foliage layers (bottom to top) -->
  <ellipse cx="24" cy="35" rx="20" ry="12" fill="#228B22"/>
  <ellipse cx="24" cy="25" rx="16" ry="10" fill="#2E8B2E"/>
  <ellipse cx="24" cy="16" rx="12" ry="8" fill="#32CD32"/>
  <ellipse cx="24" cy="10" rx="8" ry="6" fill="#3CB371"/>

  <!-- Foliage outlines -->
  <ellipse cx="24" cy="35" rx="20" ry="12" fill="none" stroke="#006400" stroke-width="1.5"/>
  <ellipse cx="24" cy="25" rx="16" ry="10" fill="none" stroke="#006400" stroke-width="1"/>
  <ellipse cx="24" cy="16" rx="12" ry="8" fill="none" stroke="#006400" stroke-width="1"/>

  <!-- Highlights -->
  <ellipse cx="18" cy="22" rx="4" ry="3" fill="#90EE90" opacity="0.5"/>
  <ellipse cx="28" cy="14" rx="3" ry="2" fill="#90EE90" opacity="0.5"/>
  <ellipse cx="16" cy="32" rx="5" ry="3" fill="#90EE90" opacity="0.4"/>
</svg>
