<svg xmlns="http://www.w3.org/2000/svg" width="24" height="24" viewBox="0 0 24 24">
  <!-- Gravel NPC - Petit blob nerveux avec mains -->

  <!-- Corps rond (petit) -->
  <ellipse cx="12" cy="12" rx="9" ry="8" fill="#8A9A80"/>

  <!-- Reflet -->
  <ellipse cx="8" cy="8" rx="3" ry="2" fill="#FFFFFF" opacity="0.4"/>

  <!-- Oeil gauche (nerveux) -->
  <circle cx="8" cy="11" r="3" fill="#FFFFFF"/>
  <circle cx="9" cy="11" r="1.5" fill="#445544"/>
  <circle cx="8" cy="10" r="0.8" fill="#FFFFFF"/>

  <!-- Oeil droit (nerveux - plus grand) -->
  <circle cx="16" cy="10" r="3.5" fill="#FFFFFF"/>
  <circle cx="17" cy="10" r="1.8" fill="#445544"/>
  <circle cx="16" cy="9" r="0.9" fill="#FFFFFF"/>

  <!-- Joues -->
  <ellipse cx="3" cy="12" rx="1.5" ry="1" fill="#C0B0A0" opacity="0.5"/>
  <ellipse cx="21" cy="12" rx="1.5" ry="1" fill="#C0B0A0" opacity="0.5"/>

  <!-- Bouche inquiète -->
  <path d="M10 15 Q12 14 14 15" stroke="#556655" stroke-width="1" fill="none" stroke-linecap="round"/>

  <!-- Petite main gauche -->
  <ellipse cx="2" cy="14" rx="2" ry="1.5" fill="#6A7A60"/>
  <ellipse cx="2" cy="14" rx="2" ry="1.5" fill="none" stroke="#5A6A50" stroke-width="0.6"/>

  <!-- Petite main droite -->
  <ellipse cx="22" cy="14" rx="2" ry="1.5" fill="#6A7A60"/>
  <ellipse cx="22" cy="14" rx="2" ry="1.5" fill="none" stroke="#5A6A50" stroke-width="0.6"/>

  <!-- Contour -->
  <ellipse cx="12" cy="12" rx="9" ry="8" fill="none" stroke="#5A6A50" stroke-width="1"/>
</svg>
